<svg xmlns="http://www.w3.org/2000/svg" viewBox="0 0 512 512">
  <rect width="512" height="512" fill="#111111"/>
  <!-- Cercle extérieur zodiac -->
  <circle cx="256" cy="256" r="220" fill="none" stroke="#FFD699" stroke-width="1.5" opacity="0.6"/>
  <!-- Cercle intermédiaire -->
  <circle cx="256" cy="256" r="170" fill="none" stroke="#FFD699" stroke-width="1" opacity="0.3"/>
  <!-- Étoile centrale -->
  <circle cx="256" cy="256" r="8" fill="#FFD699" opacity="0.9"/>
  <!-- Croix astrale -->
  <line x1="256" y1="86" x2="256" y2="426" stroke="#FFD699" stroke-width="1" opacity="0.25"/>
  <line x1="86" y1="256" x2="426" y2="256" stroke="#FFD699" stroke-width="1" opacity="0.25"/>
  <!-- Étoiles planétaires -->
  <circle cx="256" cy="86" r="4" fill="#FFD699" opacity="0.8"/>
  <circle cx="256" cy="426" r="4" fill="#FFD699" opacity="0.8"/>
  <circle cx="86" cy="256" r="4" fill="#FFD699" opacity="0.8"/>
  <circle cx="426" cy="256" r="4" fill="#FFD699" opacity="0.8"/>
  <circle cx="101" cy="145" r="3" fill="#FFD699" opacity="0.6"/>
  <circle cx="411" cy="145" r="3" fill="#FFD699" opacity="0.6"/>
  <circle cx="101" cy="367" r="3" fill="#FFD699" opacity="0.6"/>
  <circle cx="411" cy="367" r="3" fill="#FFD699" opacity="0.6"/>
  <!-- Symbole soleil au centre -->
  <circle cx="256" cy="256" r="40" fill="none" stroke="#FFD699" stroke-width="2" opacity="0.9"/>
  <circle cx="256" cy="256" r="14" fill="#FFD699" opacity="0.9"/>
  <!-- Rayons soleil -->
  <line x1="256" y1="200" x2="256" y2="212" stroke="#FFD699" stroke-width="2.5" opacity="0.9"/>
  <line x1="256" y1="300" x2="256" y2="312" stroke="#FFD699" stroke-width="2.5" opacity="0.9"/>
  <line x1="200" y1="256" x2="212" y2="256" stroke="#FFD699" stroke-width="2.5" opacity="0.9"/>
  <line x1="300" y1="256" x2="312" y2="256" stroke="#FFD699" stroke-width="2.5" opacity="0.9"/>
  <line x1="215" y1="215" x2="223" y2="223" stroke="#FFD699" stroke-width="2" opacity="0.7"/>
  <line x1="289" y1="289" x2="297" y2="297" stroke="#FFD699" stroke-width="2" opacity="0.7"/>
  <line x1="297" y1="215" x2="289" y2="223" stroke="#FFD699" stroke-width="2" opacity="0.7"/>
  <line x1="223" y1="289" x2="215" y2="297" stroke="#FFD699" stroke-width="2" opacity="0.7"/>
  <!-- Petites étoiles décoratives -->
  <circle cx="180" cy="140" r="2" fill="white" opacity="0.5"/>
  <circle cx="340" cy="110" r="1.5" fill="white" opacity="0.4"/>
  <circle cx="400" cy="200" r="2" fill="white" opacity="0.5"/>
  <circle cx="140" cy="350" r="1.5" fill="white" opacity="0.4"/>
  <circle cx="380" cy="380" r="2" fill="white" opacity="0.4"/>
  <circle cx="130" cy="180" r="1.5" fill="white" opacity="0.3"/>
  <circle cx="420" cy="320" r="1.5" fill="white" opacity="0.3"/>
</svg>
